<?xml version="1.0" encoding="UTF-8" standalone="no"?>
<svg
   width="463.60901pt"
   height="312.89801pt"
   version="1.1"
   viewBox="0 0 463.60901 312.89801"
   id="svg876"
   sodipodi:docname="email.svg"
   inkscape:version="1.2.1 (9c6d41e410, 2022-07-14)"
   xmlns:inkscape="http://www.inkscape.org/namespaces/inkscape"
   xmlns:sodipodi="http://sodipodi.sourceforge.net/DTD/sodipodi-0.dtd"
   xmlns="http://www.w3.org/2000/svg"
   xmlns:svg="http://www.w3.org/2000/svg">
  <defs
     id="defs880" />
  <sodipodi:namedview
     id="namedview878"
     pagecolor="#ffffff"
     bordercolor="#000000"
     borderopacity="0.25"
     inkscape:showpageshadow="2"
     inkscape:pageopacity="0.0"
     inkscape:pagecheckerboard="0"
     inkscape:deskcolor="#d1d1d1"
     inkscape:document-units="pt"
     showgrid="false"
     inkscape:zoom="0.84574468"
     inkscape:cx="246.5283"
     inkscape:cy="303.28302"
     inkscape:window-width="1920"
     inkscape:window-height="1019"
     inkscape:window-x="0"
     inkscape:window-y="30"
     inkscape:window-maximized="1"
     inkscape:current-layer="svg876" />
  <path
     d="M 427.952,0 H 35.652 C 26.2028,0.0117 17.14,3.7695 10.453,10.453 3.7694,17.1405 0.012,26.199 0,35.652 v 241.59 c 0.0117,9.4531 3.7695,18.516 10.453,25.199 6.6875,6.6836 15.75,10.445 25.199,10.457 h 392.32 c 9.4492,-0.0156 18.508,-3.7812 25.188,-10.461 6.6797,-6.6836 10.438,-15.746 10.449,-25.195 V 35.652 C 463.5973,26.1989 459.8356,17.14 453.152,10.453 446.4684,3.7694 437.406,0.012 427.953,0 Z M 18.112,277.24 V 35.65 c 0.004,-0.97656 0.0898,-1.9492 0.25781,-2.9102 l 161.64,146.77 -160.35,104.9 c -1.0195,-2.2539 -1.5469,-4.6992 -1.543,-7.1719 z m 179.35,-87.5 h 68.691 l 160.57,105.05 H 36.893 Z m 85.797,-10.469 161.3,-149.24 c 0.62109,1.8086 0.94141,3.7109 0.94141,5.625 v 241.59 c 0,2.4727 -0.52734,4.918 -1.543,7.1719 z m 144.7,-161.16 c 0.86719,0.008 1.7305,0.082 2.582,0.21484 l -165.67,153.3 h -66.613 l -168.08,-152.62 c 1.7656,-0.58984 3.6172,-0.89453 5.4844,-0.89453 z"
     id="path874"
     style="fill:#ffffff" />
</svg>
