<?xml version="1.0" encoding="UTF-8" standalone="no"?>
<svg
   width="703.78143"
   height="788.14252"
   viewBox="0 0 703.78143 788.14252"
   fill="none"
   version="1.1"
   id="svg586"
   sodipodi:docname="github.svg"
   inkscape:version="1.2.1 (9c6d41e410, 2022-07-14)"
   xmlns:inkscape="http://www.inkscape.org/namespaces/inkscape"
   xmlns:sodipodi="http://sodipodi.sourceforge.net/DTD/sodipodi-0.dtd"
   xmlns="http://www.w3.org/2000/svg"
   xmlns:svg="http://www.w3.org/2000/svg">
  <defs
     id="defs590" />
  <sodipodi:namedview
     id="namedview588"
     pagecolor="#ffffff"
     bordercolor="#000000"
     borderopacity="0.25"
     inkscape:showpageshadow="2"
     inkscape:pageopacity="0.0"
     inkscape:pagecheckerboard="0"
     inkscape:deskcolor="#d1d1d1"
     showgrid="false"
     inkscape:zoom="0.39892578"
     inkscape:cx="447.45165"
     inkscape:cy="109.04284"
     inkscape:window-width="1920"
     inkscape:window-height="1019"
     inkscape:window-x="0"
     inkscape:window-y="30"
     inkscape:window-maximized="1"
     inkscape:current-layer="svg586" />
  <path
     d="m 214.18141,787.16447 c 25.6,4.48 35.2,-10.88 35.2,-24.32 0,-12.16 -0.64,-52.48 -0.64,-95.36 -128.64,23.68 -161.920002,-31.36 -172.160002,-60.16 -5.76,-14.72 -30.72,-60.16 -52.48,-72.32 -17.9199997,-9.6 -43.52,-33.28 -0.64,-33.92 40.32,-0.64 69.12,37.12 78.720002,52.48 46.08,77.44 119.68,55.68 149.12,42.24 4.48,-33.28 17.92,-55.68 32.64,-68.48 -113.92,-12.8 -232.960002,-56.96 -232.960002,-252.8 0,-55.68 19.84,-101.76 52.480002,-137.6 -5.120002,-12.8 -23.040002,-65.28 5.12,-135.6799996 0,0 42.88,-13.4400004 140.8,52.4799996 40.96,-11.52 84.48,-17.28 128,-17.28 43.52,0 87.04,5.76 128,17.28 97.92,-66.56 140.8,-52.4799996 140.8,-52.4799996 28.16,70.3999996 10.24,122.8799996 5.12,135.6799996 32.64,35.84 52.48,81.28 52.48,137.6 0,196.48 -119.68,240 -233.6,252.8 18.56,16 34.56,46.72 34.56,94.72 0,68.48 -0.64,123.52 -0.64,140.8 0,13.44 9.6,29.44 35.2,24.32"
     style="clip-rule:evenodd;fill:#ffffff;fill-opacity:1;fill-rule:evenodd"
     id="path850" />
</svg>
